<svg width="16" height="17" viewBox="0 0 16 17" fill="none" xmlns="http://www.w3.org/2000/svg">
<mask id="path-1-inside-1_196_268" fill="white">
<path d="M9.61998 13.0467C9.49331 13.0467 9.36664 13 9.26664 12.9C9.07331 12.7067 9.07331 12.3867 9.26664 12.1934L12.96 8.50002L9.26664 4.80668C9.07331 4.61335 9.07331 4.29335 9.26664 4.10002C9.45998 3.90668 9.77998 3.90668 9.97331 4.10002L14.02 8.14668C14.2133 8.34002 14.2133 8.66002 14.02 8.85335L9.97331 12.9C9.87331 13 9.74664 13.0467 9.61998 13.0467Z"/>
</mask>
<path d="M9.61998 13.0467C9.49331 13.0467 9.36664 13 9.26664 12.9C9.07331 12.7067 9.07331 12.3867 9.26664 12.1934L12.96 8.50002L9.26664 4.80668C9.07331 4.61335 9.07331 4.29335 9.26664 4.10002C9.45998 3.90668 9.77998 3.90668 9.97331 4.10002L14.02 8.14668C14.2133 8.34002 14.2133 8.66002 14.02 8.85335L9.97331 12.9C9.87331 13 9.74664 13.0467 9.61998 13.0467Z" fill="black"/>
<path d="M9.26664 12.1934L8.55954 11.4862L9.26664 12.1934ZM12.96 8.50002L13.6671 9.20712L14.3742 8.50002L13.6671 7.79291L12.96 8.50002ZM9.26664 4.80668L8.55954 5.51379H8.55954L9.26664 4.80668ZM9.97331 4.10002L9.2662 4.80712H9.2662L9.97331 4.10002ZM14.02 8.14668L14.7271 7.43958L14.02 8.14668ZM14.02 8.85335L14.7271 9.56046L14.02 8.85335ZM9.97331 12.9L9.2662 12.1929H9.2662L9.97331 12.9ZM9.61998 12.0467C9.74421 12.0467 9.87633 12.0955 9.97375 12.1929L8.55954 13.6071C8.85696 13.9045 9.24241 14.0467 9.61998 14.0467V12.0467ZM9.97375 12.1929C10.1709 12.3901 10.1709 12.7033 9.97375 12.9005L8.55954 11.4862C7.97568 12.0701 7.97568 13.0233 8.55954 13.6071L9.97375 12.1929ZM9.97375 12.9005L13.6671 9.20712L12.2529 7.79291L8.55954 11.4862L9.97375 12.9005ZM13.6671 7.79291L9.97375 4.09958L8.55954 5.51379L12.2529 9.20712L13.6671 7.79291ZM9.97375 4.09958C10.1709 4.29677 10.1709 4.60993 9.97375 4.80712L8.55954 3.39291C7.97568 3.97677 7.97568 4.92993 8.55954 5.51379L9.97375 4.09958ZM9.97375 4.80712C9.77656 5.00431 9.46339 5.00431 9.2662 4.80712L10.6804 3.39291C10.0966 2.80905 9.14339 2.80905 8.55954 3.39291L9.97375 4.80712ZM9.2662 4.80712L13.3129 8.85379L14.7271 7.43958L10.6804 3.39291L9.2662 4.80712ZM13.3129 8.85379C13.1157 8.6566 13.1157 8.34343 13.3129 8.14624L14.7271 9.56046C15.3109 8.9766 15.3109 8.02343 14.7271 7.43958L13.3129 8.85379ZM13.3129 8.14624L9.2662 12.1929L10.6804 13.6071L14.7271 9.56046L13.3129 8.14624ZM9.2662 12.1929C9.36362 12.0955 9.49574 12.0467 9.61998 12.0467V14.0467C9.99755 14.0467 10.383 13.9045 10.6804 13.6071L9.2662 12.1929Z" fill="white" mask="url(#path-1-inside-1_196_268)"/>
<mask id="path-3-inside-2_196_268" fill="white">
<path d="M13.5533 9H2.33331C2.05998 9 1.83331 8.77333 1.83331 8.5C1.83331 8.22667 2.05998 8 2.33331 8H13.5533C13.8266 8 14.0533 8.22667 14.0533 8.5C14.0533 8.77333 13.8266 9 13.5533 9Z"/>
</mask>
<path d="M13.5533 9H2.33331C2.05998 9 1.83331 8.77333 1.83331 8.5C1.83331 8.22667 2.05998 8 2.33331 8H13.5533C13.8266 8 14.0533 8.22667 14.0533 8.5C14.0533 8.77333 13.8266 9 13.5533 9Z" fill="black"/>
<path d="M13.5533 8H2.33331V10H13.5533V8ZM2.33331 8C2.61226 8 2.83331 8.22105 2.83331 8.5H0.833313C0.833313 9.32562 1.50769 10 2.33331 10V8ZM2.83331 8.5C2.83331 8.77895 2.61226 9 2.33331 9V7C1.50769 7 0.833313 7.67438 0.833313 8.5H2.83331ZM2.33331 9H13.5533V7H2.33331V9ZM13.5533 9C13.2744 9 13.0533 8.77895 13.0533 8.5H15.0533C15.0533 7.67438 14.3789 7 13.5533 7V9ZM13.0533 8.5C13.0533 8.22105 13.2744 8 13.5533 8V10C14.3789 10 15.0533 9.32562 15.0533 8.5H13.0533Z" fill="white" mask="url(#path-3-inside-2_196_268)"/>
</svg>
