<svg width="443" height="46" viewBox="0 0 443 46" fill="none" xmlns="http://www.w3.org/2000/svg">
<path d="M4.54 10.5C4.54 7.932 5.416 6.06 7.912 6.06C10.408 6.06 11.284 7.932 11.284 10.5C11.284 13.092 10.408 14.964 7.912 14.964C5.416 14.964 4.54 13.092 4.54 10.5ZM9.268 10.5C9.268 9.156 9.124 7.98 7.912 7.98C6.7 7.98 6.556 9.156 6.556 10.5C6.556 11.892 6.7 13.044 7.912 13.044C9.124 13.044 9.268 11.892 9.268 10.5ZM13.3401 15V8.148H12.1521V6.24H15.4761V15H13.3401Z" fill="#001E49"/>
<path d="M100 21H0V23H100V21Z" fill="#C3262C" mask="url(#path-1-inside-1_110_8321)"/>
<path d="M112.744 10.572C112.744 8.088 113.368 6.192 115.768 6.192C118.156 6.192 118.78 8.088 118.78 10.572C118.78 13.092 118.156 15 115.768 15C113.368 15 112.744 13.092 112.744 10.572ZM117.7 10.572C117.7 8.772 117.472 7.188 115.768 7.188C114.052 7.188 113.824 8.772 113.824 10.572C113.824 12.444 114.052 14.004 115.768 14.004C117.472 14.004 117.7 12.444 117.7 10.572ZM120.147 14.904V14.124C122.427 12.288 124.587 10.56 124.587 8.784C124.587 7.824 124.167 7.104 122.991 7.104C121.863 7.104 121.287 7.884 121.239 8.976H120.183C120.255 7.128 121.419 6.168 122.979 6.168C124.611 6.168 125.667 7.128 125.667 8.736C125.667 10.896 123.339 12.732 121.791 13.992H125.919V14.904H120.147Z" fill="white"/>
<path d="M112.744 10.572C112.744 8.088 113.368 6.192 115.768 6.192C118.156 6.192 118.78 8.088 118.78 10.572C118.78 13.092 118.156 15 115.768 15C113.368 15 112.744 13.092 112.744 10.572ZM117.7 10.572C117.7 8.772 117.472 7.188 115.768 7.188C114.052 7.188 113.824 8.772 113.824 10.572C113.824 12.444 114.052 14.004 115.768 14.004C117.472 14.004 117.7 12.444 117.7 10.572ZM120.147 14.904V14.124C122.427 12.288 124.587 10.56 124.587 8.784C124.587 7.824 124.167 7.104 122.991 7.104C121.863 7.104 121.287 7.884 121.239 8.976H120.183C120.255 7.128 121.419 6.168 122.979 6.168C124.611 6.168 125.667 7.128 125.667 8.736C125.667 10.896 123.339 12.732 121.791 13.992H125.919V14.904H120.147Z" fill="#001E49" fill-opacity="0.4"/>
<path d="M160 21H108V23H160V21Z" fill="white" mask="url(#path-4-inside-2_110_8321)"/>
<path d="M160 21H108V23H160V21Z" fill="#001E49" fill-opacity="0.2" mask="url(#path-4-inside-2_110_8321)"/>
<path d="M172.744 10.572C172.744 8.088 173.368 6.192 175.768 6.192C178.156 6.192 178.78 8.088 178.78 10.572C178.78 13.092 178.156 15 175.768 15C173.368 15 172.744 13.092 172.744 10.572ZM177.7 10.572C177.7 8.772 177.472 7.188 175.768 7.188C174.052 7.188 173.824 8.772 173.824 10.572C173.824 12.444 174.052 14.004 175.768 14.004C177.472 14.004 177.7 12.444 177.7 10.572ZM180.255 8.508C180.363 7.02 181.491 6.156 183.099 6.156C184.791 6.156 185.715 7.14 185.715 8.388C185.715 9.384 185.091 10.164 184.179 10.368V10.428C185.187 10.668 185.871 11.412 185.871 12.66C185.871 14.004 184.935 15.06 183.123 15.06C181.479 15.06 180.255 14.184 180.123 12.504H181.179C181.287 13.428 181.959 14.136 183.111 14.136C184.275 14.136 184.827 13.452 184.827 12.564C184.827 11.34 183.975 10.872 182.415 10.872H182.139V9.96H182.427C183.879 9.948 184.659 9.504 184.659 8.496C184.659 7.668 184.107 7.092 183.063 7.092C182.043 7.092 181.431 7.668 181.323 8.508H180.255Z" fill="white"/>
<path d="M172.744 10.572C172.744 8.088 173.368 6.192 175.768 6.192C178.156 6.192 178.78 8.088 178.78 10.572C178.78 13.092 178.156 15 175.768 15C173.368 15 172.744 13.092 172.744 10.572ZM177.7 10.572C177.7 8.772 177.472 7.188 175.768 7.188C174.052 7.188 173.824 8.772 173.824 10.572C173.824 12.444 174.052 14.004 175.768 14.004C177.472 14.004 177.7 12.444 177.7 10.572ZM180.255 8.508C180.363 7.02 181.491 6.156 183.099 6.156C184.791 6.156 185.715 7.14 185.715 8.388C185.715 9.384 185.091 10.164 184.179 10.368V10.428C185.187 10.668 185.871 11.412 185.871 12.66C185.871 14.004 184.935 15.06 183.123 15.06C181.479 15.06 180.255 14.184 180.123 12.504H181.179C181.287 13.428 181.959 14.136 183.111 14.136C184.275 14.136 184.827 13.452 184.827 12.564C184.827 11.34 183.975 10.872 182.415 10.872H182.139V9.96H182.427C183.879 9.948 184.659 9.504 184.659 8.496C184.659 7.668 184.107 7.092 183.063 7.092C182.043 7.092 181.431 7.668 181.323 8.508H180.255Z" fill="#001E49" fill-opacity="0.4"/>
<path d="M220 21H168V23H220V21Z" fill="white" mask="url(#path-7-inside-3_110_8321)"/>
<path d="M220 21H168V23H220V21Z" fill="#001E49" fill-opacity="0.2" mask="url(#path-7-inside-3_110_8321)"/>
<path d="M232.744 10.572C232.744 8.088 233.368 6.192 235.768 6.192C238.156 6.192 238.78 8.088 238.78 10.572C238.78 13.092 238.156 15 235.768 15C233.368 15 232.744 13.092 232.744 10.572ZM237.7 10.572C237.7 8.772 237.472 7.188 235.768 7.188C234.052 7.188 233.824 8.772 233.824 10.572C233.824 12.444 234.052 14.004 235.768 14.004C237.472 14.004 237.7 12.444 237.7 10.572ZM244.455 15V13.068H240.015V12.24L244.227 6.408H245.535V12.12H246.735V13.068H245.535V15H244.455ZM241.275 12.12H244.503V7.548L241.275 12.12Z" fill="white"/>
<path d="M232.744 10.572C232.744 8.088 233.368 6.192 235.768 6.192C238.156 6.192 238.78 8.088 238.78 10.572C238.78 13.092 238.156 15 235.768 15C233.368 15 232.744 13.092 232.744 10.572ZM237.7 10.572C237.7 8.772 237.472 7.188 235.768 7.188C234.052 7.188 233.824 8.772 233.824 10.572C233.824 12.444 234.052 14.004 235.768 14.004C237.472 14.004 237.7 12.444 237.7 10.572ZM244.455 15V13.068H240.015V12.24L244.227 6.408H245.535V12.12H246.735V13.068H245.535V15H244.455ZM241.275 12.12H244.503V7.548L241.275 12.12Z" fill="#001E49" fill-opacity="0.4"/>
<path d="M280 21H228V23H280V21Z" fill="white" mask="url(#path-10-inside-4_110_8321)"/>
<path d="M280 21H228V23H280V21Z" fill="#001E49" fill-opacity="0.2" mask="url(#path-10-inside-4_110_8321)"/>
<path d="M292.744 10.572C292.744 8.088 293.368 6.192 295.768 6.192C298.156 6.192 298.78 8.088 298.78 10.572C298.78 13.092 298.156 15 295.768 15C293.368 15 292.744 13.092 292.744 10.572ZM297.7 10.572C297.7 8.772 297.472 7.188 295.768 7.188C294.052 7.188 293.824 8.772 293.824 10.572C293.824 12.444 294.052 14.004 295.768 14.004C297.472 14.004 297.7 12.444 297.7 10.572ZM300.591 6.312H305.811V7.272H301.599V10.008C301.959 9.516 302.727 9.132 303.579 9.132C305.691 9.132 306.363 10.656 306.363 12C306.363 13.68 305.427 15.024 303.399 15.024C301.671 15.024 300.627 14.052 300.411 12.648H301.479C301.683 13.56 302.391 14.1 303.411 14.1C304.731 14.1 305.319 13.212 305.319 12.024C305.319 10.788 304.683 10.068 303.423 10.068C302.547 10.068 301.911 10.524 301.623 11.208H300.591V6.312Z" fill="white"/>
<path d="M292.744 10.572C292.744 8.088 293.368 6.192 295.768 6.192C298.156 6.192 298.78 8.088 298.78 10.572C298.78 13.092 298.156 15 295.768 15C293.368 15 292.744 13.092 292.744 10.572ZM297.7 10.572C297.7 8.772 297.472 7.188 295.768 7.188C294.052 7.188 293.824 8.772 293.824 10.572C293.824 12.444 294.052 14.004 295.768 14.004C297.472 14.004 297.7 12.444 297.7 10.572ZM300.591 6.312H305.811V7.272H301.599V10.008C301.959 9.516 302.727 9.132 303.579 9.132C305.691 9.132 306.363 10.656 306.363 12C306.363 13.68 305.427 15.024 303.399 15.024C301.671 15.024 300.627 14.052 300.411 12.648H301.479C301.683 13.56 302.391 14.1 303.411 14.1C304.731 14.1 305.319 13.212 305.319 12.024C305.319 10.788 304.683 10.068 303.423 10.068C302.547 10.068 301.911 10.524 301.623 11.208H300.591V6.312Z" fill="#001E49" fill-opacity="0.4"/>
<path d="M340 21H288V23H340V21Z" fill="white" mask="url(#path-13-inside-5_110_8321)"/>
<path d="M340 21H288V23H340V21Z" fill="#001E49" fill-opacity="0.2" mask="url(#path-13-inside-5_110_8321)"/>
</svg>
