<svg width="100" height="58" viewBox="0 0 100 58" fill="none" xmlns="http://www.w3.org/2000/svg">
<path fill-rule="evenodd" clip-rule="evenodd" d="M67.6574 54.6853H71.1189C85.3702 54.6853 96.9231 43.1324 96.9231 28.8811C96.9231 14.6299 85.3702 3.07692 71.1189 3.07692H67.6574V16.9231H71.1189C77.7231 16.9231 83.0769 22.2769 83.0769 28.8811C83.0769 35.4854 77.7231 40.8392 71.1189 40.8392H67.6574V54.6853Z" fill="#001E49"/>
<path d="M15.035 9.68529H28.8811V48.0769H15.035V9.68529Z" fill="#001E49"/>
<rect x="28.8811" y="9.68529" width="13.8462" height="25.8042" transform="rotate(90 28.8811 9.68529)" fill="#001E49"/>
<path d="M47.1167 3.07692H65.6993L41.17 28.8811H22.5874L47.1167 3.07692Z" fill="#C3262C"/>
<path d="M47.1167 54.6853H65.6993L41.17 28.8811H22.5874L47.1167 54.6853Z" fill="#C3262C"/>
</svg>
