<svg width="1262" height="275" viewBox="0 0 1262 275" fill="none" xmlns="http://www.w3.org/2000/svg">
<g opacity="0.04" clip-path="url(#clip0_113_9376)">
<path d="M1262 285.451V204.649H1258.79V152.838H1253.03V139.622H1238.53V106.366H1228.95V84.6222H1234.07V79.7107H1199.53V47.1033H1189.3V34.1081H1192.71V12.7905L1185.68 7.67432L1176.95 12.9952V34.3128H1180.79V47.1033H1171.84V24.5067H1147.11V47.1033H1140.93V173.508H1105.97V218.701H1096.8V229.786H1079.1V182.035H1074.63V172.007H1059.48V181.813H1053.09V176.697H1050.1V170.523L1043.49 166.686L1037.52 169.671L1032.4 166.686L1026.86 169.04V182.257H1024.1V230.434H1020.48V205.501H1015.79V152.634H1010.25V141.122H989.783V152.855H968.892V234.715H959.308V204.87H955.47V152.651H948.649V141.361H942.475V133.482L937.154 130.719L930.537 133.704V139.673H923.511V152.668H911.147V155.652H906.031V182.086H901.563V45.1932H894.315V39.429H877.687V24.5067H868.307V15.3316L860.633 11.2727L852.958 15.1099V20.6525H845.489V40.691H837.166V125.109H820.76V138.752H807.765V122.346L777.494 140.457H770.246V188.209H754.693V193.12H746.166V203.557H740.402V193.751H721.642V229.769H717.174V182.444H713.968V152.804H710.352V131.487L704.384 123.608V109.316L698.841 106.554L692.667 109.965V123.608L688.404 131.708V117.639H666.882V131.487H663.897V182.001H660.486V204.376H656.018V182.001H653.665V152.583H647.901V141.702H626.805V152.583L605.914 152.378V167.079L602.298 169.432V182.018H591.639V77.5618H586.523V59.4504H566.263V77.3572H545.15V183.945H538.124V109.555H540.034V104.644H532.359V88.647H524.037V78.8409L515.51 75.0037L507.836 78.6192V88.647H497.177V105.275H480.771V109.743H473.096V192.66H468.407V152.378H460.084V145.13H463.29V133.397L457.526 130.191L451.131 133.397V145.13H454.337V152.6H446.663V138.752H438.34V80.1199H416.17V61.3605H395.057V80.1199H391.442V95.6732H377.15V112.523H373.535V29.4182H359.687V8.32238L351.16 0L343.059 8.32238V29.6399H330.064V35.1825H323.891V229.803H293.193V182.478H288.725V98.7089H282.756V94.4454H270.392V76.7432H263.144V67.0395L257.601 62.9806L251.837 67.0395V79.0797H245.442V94.8547H236.71V237.682H231.389V185.667H232.668V182.052H227.552V172.246H211.556V182.052H202.602V171.717C202.602 171.717 201.852 166.703 196.309 166.703C190.767 166.703 190.136 170.012 190.136 170.012C190.136 170.012 189.078 166.925 183.416 166.925C178.505 166.925 178.095 171.717 178.095 171.717V182.274H174.48V185.258H176.39V260.501H169.995V185.258H171.905V182.274H166.993V171.837H151.44V181.012H141.856V170.353C141.856 170.353 140.798 166.942 135.887 166.942C131.521 166.942 129.918 170.353 129.918 170.353C129.918 170.353 129.065 166.84 124.051 166.84C120.214 166.84 118.406 170.148 118.406 170.148V182.086H115.848V230.042H111.38V86.5493H113.085V82.0812H106.059V65.4535H81.5354V81.8595H56.8071V230.025H46.1483V155.84H47.8537V152.429H41.8848V140.065H23.3299V152.429H15.2293V145.403H17.361V133.465L11.8185 130.054L4.99684 133.891V145.625H7.12859V152.651H0V285.246H1261.78" fill="#1D1D1B"/>
</g>
<defs>
<clipPath id="clip0_113_9376">
<rect width="1262" height="285.451" fill="white"/>
</clipPath>
</defs>
</svg>
