<svg width="36" height="36" viewBox="0 0 36 36" fill="none" xmlns="http://www.w3.org/2000/svg">
<g id="Play">
<path id="Vector" d="M11.5 25.8885V10.1115C11.4999 9.8476 11.5695 9.58832 11.7017 9.35987C11.8338 9.13142 12.024 8.9419 12.2528 8.81043C12.4817 8.67896 12.7412 8.6102 13.0051 8.61109C13.269 8.61199 13.528 8.68251 13.756 8.81553L27.2785 16.7055C27.5048 16.8377 27.6925 17.0268 27.8229 17.254C27.9533 17.4813 28.022 17.7388 28.022 18.0008C28.022 18.2628 27.9533 18.5203 27.8229 18.7475C27.6925 18.9748 27.5048 19.1639 27.2785 19.296L13.756 27.1845C13.528 27.3175 13.269 27.3881 13.0051 27.389C12.7412 27.3899 12.4817 27.3211 12.2528 27.1896C12.024 27.0582 11.8338 26.8686 11.7017 26.6402C11.5695 26.4117 11.4999 26.1525 11.5 25.8885Z" fill="#C3262C"/>
</g>
</svg>
