<svg width="28" height="28" viewBox="0 0 28 28" fill="none" xmlns="http://www.w3.org/2000/svg">
<rect width="28" height="28" rx="14" fill="#00D95F"/>
<path d="M7.00006 20.4817L8.00453 16.7468C7.19445 15.2919 6.93708 13.5942 7.27965 11.9651C7.62221 10.336 8.54174 8.88492 9.86948 7.87806C11.1972 6.87121 12.8441 6.37614 14.508 6.4837C16.1719 6.59126 17.7411 7.29424 18.9277 8.46364C20.1142 9.63303 20.8386 11.1904 20.9679 12.85C21.0972 14.5096 20.6226 16.16 19.6314 17.4985C18.6401 18.8369 17.1986 19.7736 15.5714 20.1367C13.9442 20.4997 12.2404 20.2648 10.7727 19.4749L7.00006 20.4817ZM10.9547 18.0773L11.188 18.2155C12.2511 18.8446 13.4927 19.1049 14.7195 18.9559C15.9462 18.8069 17.0891 18.257 17.9701 17.3918C18.8511 16.5266 19.4207 15.3947 19.5901 14.1727C19.7594 12.9506 19.5191 11.7068 18.9066 10.6353C18.294 9.56382 17.3436 8.72469 16.2035 8.24873C15.0634 7.77276 13.7976 7.68668 12.6033 8.00391C11.4091 8.32114 10.3535 9.02386 9.6011 10.0026C8.84867 10.9812 8.44165 12.1809 8.44349 13.4147C8.44249 14.4377 8.72587 15.4408 9.26209 16.3125L9.40841 16.5534L8.84686 18.6379L10.9547 18.0773Z" fill="white"/>
<path fill-rule="evenodd" clip-rule="evenodd" d="M16.6175 14.3738C16.4807 14.2636 16.3206 14.1861 16.1493 14.1471C15.9779 14.1081 15.8 14.1087 15.6289 14.1487C15.3718 14.2553 15.2057 14.658 15.0396 14.8594C15.0046 14.9076 14.9532 14.9415 14.8949 14.9546C14.8367 14.9677 14.7756 14.9591 14.7233 14.9304C13.7822 14.5625 12.9934 13.8877 12.485 13.0156C12.4416 12.9612 12.4211 12.8921 12.4277 12.8229C12.4344 12.7537 12.4676 12.6897 12.5206 12.6445C12.7058 12.4614 12.8418 12.2347 12.916 11.9852C12.9325 11.71 12.8693 11.4359 12.7341 11.1956C12.6296 10.8586 12.4306 10.5586 12.1607 10.331C12.0215 10.2685 11.8671 10.2475 11.7163 10.2706C11.5654 10.2937 11.4245 10.3599 11.3105 10.4612C11.1125 10.6317 10.9554 10.8444 10.8507 11.0835C10.746 11.3227 10.6963 11.5822 10.7054 11.8431C10.706 11.9895 10.7246 12.1354 10.7608 12.2773C10.8526 12.6184 10.9938 12.9443 11.18 13.2446C11.3142 13.4747 11.4608 13.6974 11.6189 13.9118C12.1328 14.6162 12.7788 15.2142 13.5211 15.6727C13.8935 15.9057 14.2916 16.0951 14.7075 16.2372C15.1394 16.4327 15.6164 16.5078 16.0876 16.4544C16.3561 16.4138 16.6105 16.308 16.8284 16.1462C17.0463 15.9844 17.2211 15.7716 17.3373 15.5266C17.4055 15.3786 17.4263 15.2131 17.3966 15.0528C17.3254 14.7251 16.8864 14.5317 16.6175 14.3738Z" fill="white"/>
</svg>
