<svg width="28" height="28" viewBox="0 0 28 28" fill="none" xmlns="http://www.w3.org/2000/svg">
<rect width="28" height="28" rx="14" fill="url(#paint0_linear_113_9272)"/>
<path d="M11.6699 14.0358C11.6699 12.746 12.7149 11.7002 14.0043 11.7002C15.2937 11.7002 16.3392 12.746 16.3392 14.0358C16.3392 15.3255 15.2937 16.3714 14.0043 16.3714C12.7149 16.3714 11.6699 15.3255 11.6699 14.0358ZM10.4077 14.0358C10.4077 16.0227 12.0179 17.6334 14.0043 17.6334C15.9907 17.6334 17.6008 16.0227 17.6008 14.0358C17.6008 12.0488 15.9907 10.4382 14.0043 10.4382C12.0179 10.4382 10.4077 12.0488 10.4077 14.0358ZM16.9027 10.2955C16.9026 10.4618 16.9519 10.6244 17.0442 10.7627C17.1365 10.901 17.2677 11.0088 17.4213 11.0725C17.5748 11.1362 17.7438 11.1529 17.9069 11.1205C18.0699 11.0881 18.2197 11.0081 18.3373 10.8906C18.4549 10.773 18.535 10.6233 18.5675 10.4602C18.6 10.2971 18.5834 10.1281 18.5199 9.97441C18.4563 9.82076 18.3486 9.68941 18.2105 9.59697C18.0723 9.50454 17.9098 9.45516 17.7436 9.4551H17.7432C17.5204 9.4552 17.3067 9.54376 17.1491 9.70134C16.9915 9.85892 16.9029 10.0726 16.9027 10.2955ZM11.1746 19.7387C10.4917 19.7076 10.1205 19.5938 9.87386 19.4976C9.54684 19.3703 9.31352 19.2186 9.06821 18.9736C8.82289 18.7285 8.67104 18.4954 8.54429 18.1683C8.44814 17.9216 8.33439 17.5503 8.30335 16.8672C8.26939 16.1287 8.26261 15.9068 8.26261 14.0358C8.26261 12.1648 8.26995 11.9436 8.30335 11.2045C8.33445 10.5214 8.44903 10.1507 8.54429 9.90338C8.6716 9.57627 8.82323 9.34288 9.06821 9.0975C9.31318 8.85211 9.54628 8.70022 9.87386 8.57343C10.1204 8.47725 10.4917 8.36347 11.1746 8.33242C11.9129 8.29845 12.1346 8.29167 14.0043 8.29167C15.8739 8.29167 16.0959 8.29901 16.8348 8.33242C17.5177 8.36353 17.8882 8.47815 18.1355 8.57343C18.4625 8.70022 18.6958 8.85245 18.9412 9.0975C19.1865 9.34255 19.3378 9.57627 19.4651 9.90338C19.5612 10.15 19.675 10.5214 19.706 11.2045C19.74 11.9436 19.7468 12.1648 19.7468 14.0358C19.7468 15.9068 19.74 16.128 19.706 16.8672C19.6749 17.5503 19.5606 17.9215 19.4651 18.1683C19.3378 18.4954 19.1861 18.7288 18.9412 18.9736C18.6962 19.2184 18.4625 19.3703 18.1355 19.4976C17.889 19.5938 17.5177 19.7076 16.8348 19.7387C16.0965 19.7726 15.8747 19.7794 14.0043 19.7794C12.1338 19.7794 11.9126 19.7726 11.1746 19.7387ZM11.1166 7.07197C10.3709 7.10594 9.86142 7.2242 9.41645 7.3974C8.95563 7.57625 8.56553 7.8162 8.1757 8.20552C7.78588 8.59484 7.54661 8.98568 7.36781 9.44663C7.19467 9.892 7.07643 10.4014 7.04248 11.1472C7.00796 11.8943 7.00006 12.1331 7.00006 14.0358C7.00006 15.9384 7.00796 16.1773 7.04248 16.9243C7.07643 17.6702 7.19467 18.1795 7.36781 18.6249C7.54661 19.0856 7.78593 19.4769 8.1757 19.866C8.56547 20.2552 8.95563 20.4948 9.41645 20.6741C9.86226 20.8473 10.3709 20.9656 11.1166 20.9996C11.8638 21.0335 12.1021 21.042 14.0043 21.042C15.9064 21.042 16.1451 21.0341 16.892 20.9996C17.6376 20.9656 18.1468 20.8473 18.5921 20.6741C19.0526 20.4948 19.443 20.2553 19.8328 19.866C20.2226 19.4767 20.4614 19.0856 20.6407 18.6249C20.8139 18.1795 20.9326 17.6701 20.966 16.9243C21 16.1767 21.0079 15.9384 21.0079 14.0358C21.0079 12.1331 21 11.8943 20.966 11.1472C20.9321 10.4013 20.8139 9.89172 20.6407 9.44663C20.4614 8.98596 20.222 8.59546 19.8328 8.20552C19.4436 7.81558 19.0526 7.57625 18.5926 7.3974C18.1468 7.2242 17.6376 7.10538 16.8925 7.07197C16.1457 7.038 15.9069 7.02954 14.0048 7.02954C12.1027 7.02954 11.8638 7.03744 11.1166 7.07197Z" fill="white"/>
<defs>
<linearGradient id="paint0_linear_113_9272" x1="27.4618" y1="28" x2="-0.538159" y2="-7.53681e-07" gradientUnits="userSpaceOnUse">
<stop stop-color="#FBE18A"/>
<stop offset="0.21" stop-color="#FCBB45"/>
<stop offset="0.38" stop-color="#F75274"/>
<stop offset="0.52" stop-color="#D53692"/>
<stop offset="0.74" stop-color="#8F39CE"/>
<stop offset="1" stop-color="#5B4FE9"/>
</linearGradient>
</defs>
</svg>
