<svg width="28" height="28" viewBox="0 0 28 28" fill="none" xmlns="http://www.w3.org/2000/svg">
<rect width="28" height="28" rx="14" fill="#006699"/>
<path d="M10.7792 19.6738V12.1102H8.26738V19.6738H10.7794H10.7792ZM9.5238 11.0777C10.3995 11.0777 10.9447 10.4969 10.9447 9.77107C10.9283 9.0287 10.3995 8.46411 9.54045 8.46411C8.68079 8.46411 8.11932 9.0287 8.11932 9.771C8.11932 10.4968 8.66433 11.0776 9.50734 11.0776H9.5236L9.5238 11.0777ZM12.1695 19.6738H14.6811V15.4504C14.6811 15.2246 14.6975 14.9983 14.7638 14.8371C14.9453 14.3852 15.3586 13.9175 16.0526 13.9175C16.9613 13.9175 17.325 14.611 17.325 15.6279V19.6738H19.8365V15.3371C19.8365 13.0139 18.5975 11.9329 16.945 11.9329C15.5902 11.9329 14.9952 12.6908 14.6646 13.207H14.6813V12.1105H12.1696C12.2024 12.82 12.1694 19.6741 12.1694 19.6741L12.1695 19.6738Z" fill="white"/>
</svg>
