<svg width="136" height="40" viewBox="0 0 136 40" fill="none" xmlns="http://www.w3.org/2000/svg">
<g clip-path="url(#clip0_108_8148)">
<path fill-rule="evenodd" clip-rule="evenodd" d="M130.642 40H5.68567C2.91805 40 0.664062 37.7456 0.664062 35V5C0.664062 2.24439 2.91805 0 5.68567 0H130.642C133.408 0 135.664 2.24439 135.664 5V35C135.664 37.7456 133.408 40 130.642 40Z" fill="black"/>
<path fill-rule="evenodd" clip-rule="evenodd" d="M130.642 0.800499C132.964 0.800499 134.864 2.68828 134.864 5V35C134.864 37.3117 132.976 39.1995 130.642 39.1995H5.68567C3.36436 39.1995 1.46443 37.3117 1.46443 35V5C1.46443 2.68828 3.35189 0.800499 5.68567 0.800499H130.642ZM130.642 0H5.68567C2.91805 0 0.664062 2.25436 0.664062 5V35C0.664062 37.7556 2.91805 40 5.68567 40H130.642C133.408 40 135.664 37.7556 135.664 35V5C135.664 2.25436 133.408 0 130.642 0Z" fill="#A6A6A6"/>
<path d="M68.8001 21.7521C66.4481 21.7521 64.5311 23.5401 64.5311 26.0051C64.5311 28.4541 66.4481 30.2581 68.8001 30.2581C71.1521 30.2581 73.0691 28.4541 73.0691 26.0051C73.0691 23.5401 71.1521 21.7521 68.8001 21.7521ZM68.8001 28.5831C67.5111 28.5831 66.3991 27.5201 66.3991 26.0051C66.3991 24.4741 67.5111 23.4271 68.8001 23.4271C70.0891 23.4271 71.2001 24.4741 71.2001 26.0051C71.2001 27.5191 70.0891 28.5831 68.8001 28.5831ZM59.4861 21.7521C57.1341 21.7521 55.2171 23.5401 55.2171 26.0051C55.2171 28.4541 57.1341 30.2581 59.4861 30.2581C61.8381 30.2581 63.7551 28.4541 63.7551 26.0051C63.7561 23.5401 61.8381 21.7521 59.4861 21.7521ZM59.4861 28.5831C58.1971 28.5831 57.0861 27.5201 57.0861 26.0051C57.0861 24.4741 58.1981 23.4271 59.4861 23.4271C60.7751 23.4271 61.8861 24.4741 61.8861 26.0051C61.8871 27.5191 60.7751 28.5831 59.4861 28.5831ZM48.4081 23.0571V24.8611H52.7261C52.5971 25.8761 52.2591 26.6171 51.7431 27.1331C51.1151 27.7611 50.1321 28.4541 48.4081 28.4541C45.7501 28.4541 43.6721 26.3111 43.6721 23.6531C43.6721 20.9951 45.7501 18.8521 48.4081 18.8521C49.8421 18.8521 50.8891 19.4161 51.6621 20.1411L52.9351 18.8681C51.8561 17.8371 50.4221 17.0471 48.4081 17.0471C44.7671 17.0471 41.7061 20.0111 41.7061 23.6521C41.7061 27.2931 44.7671 30.2571 48.4081 30.2571C50.3731 30.2571 51.8561 29.6131 53.0161 28.4041C54.2081 27.2121 54.5791 25.5361 54.5791 24.1831C54.5791 23.7641 54.5471 23.3771 54.4821 23.0551H48.4081V23.0571ZM93.7161 24.4581C93.3621 23.5071 92.2821 21.7511 90.0751 21.7511C87.8841 21.7511 86.0641 23.4751 86.0641 26.0041C86.0641 28.3881 87.8681 30.2571 90.2851 30.2571C92.2341 30.2571 93.3621 29.0651 93.8291 28.3721L92.3791 27.4051C91.8961 28.1141 91.2351 28.5811 90.2851 28.5811C89.3341 28.5811 88.6581 28.1461 88.2231 27.2921L93.9101 24.9401L93.7161 24.4581ZM87.9161 25.8761C87.8681 24.2331 89.1891 23.3951 90.1391 23.3951C90.8801 23.3951 91.5081 23.7651 91.7181 24.2971L87.9161 25.8761ZM83.2921 30.0001H85.1611V17.4991H83.2921V30.0001ZM80.2311 22.7021H80.1671C79.7481 22.2031 78.9431 21.7511 77.9281 21.7511C75.8011 21.7511 73.8521 23.6201 73.8521 26.0201C73.8521 28.4041 75.8011 30.2571 77.9281 30.2571C78.9431 30.2571 79.7481 29.8061 80.1671 29.2901H80.2311V29.9021C80.2311 31.5291 79.3611 32.3991 77.9591 32.3991C76.8151 32.3991 76.1061 31.5771 75.8161 30.8851L74.1891 31.5621C74.6561 32.6901 75.8971 34.0751 77.9591 34.0751C80.1501 34.0751 82.0031 32.7861 82.0031 29.6451V22.0091H80.2311V22.7021ZM78.0891 28.5831C76.8001 28.5831 75.7211 27.5041 75.7211 26.0211C75.7211 24.5231 76.8001 23.4271 78.0891 23.4271C79.3621 23.4271 80.3601 24.5221 80.3601 26.0211C80.3601 27.5031 79.3621 28.5831 78.0891 28.5831ZM102.47 17.4991H97.9991V30.0001H99.8641V25.2641H102.469C104.537 25.2641 106.57 23.7671 106.57 21.3821C106.57 18.9971 104.538 17.4991 102.47 17.4991ZM102.518 23.5241H99.8641V19.2391H102.518C103.913 19.2391 104.705 20.3941 104.705 21.3821C104.705 22.3501 103.913 23.5241 102.518 23.5241ZM114.05 21.7291C112.699 21.7291 111.3 22.3241 110.721 23.6431L112.378 24.3351C112.732 23.6431 113.391 23.4181 114.083 23.4181C115.048 23.4181 116.029 23.9971 116.045 25.0261V25.1551C115.707 24.9621 114.983 24.6721 114.099 24.6721C112.314 24.6721 110.496 25.6531 110.496 27.4871C110.496 29.1601 111.96 30.2371 113.6 30.2371C114.855 30.2371 115.546 29.6741 115.98 29.0151H116.044V29.9801H117.845V25.1871C117.845 22.9671 116.189 21.7291 114.05 21.7291ZM113.824 28.5801C113.213 28.5801 112.36 28.2741 112.36 27.5191C112.36 26.5541 113.422 26.1841 114.338 26.1841C115.158 26.1841 115.544 26.3611 116.043 26.6021C115.899 27.7601 114.902 28.5801 113.824 28.5801ZM124.407 22.0021L122.268 27.4221H122.204L119.985 22.0021H117.975L121.304 29.5771L119.406 33.7911H121.352L126.483 22.0021H124.407ZM107.6 30.0001H109.466V17.4991H107.6V30.0001Z" fill="white"/>
<path d="M21.8752 19.2839L11.2282 30.5839C11.2292 30.5859 11.2292 30.5879 11.2302 30.5899C11.5562 31.8179 12.6772 32.7209 14.0072 32.7209C14.5392 32.7209 15.0382 32.5769 15.4662 32.3249L15.5002 32.3049L27.4842 25.3899L21.8752 19.2839Z" fill="#EB4335"/>
<path d="M32.6463 17.36L32.6363 17.353L27.4623 14.353L21.6333 19.54L27.4823 25.388L32.6293 22.419C33.5313 21.932 34.1433 20.981 34.1433 19.884C34.1433 18.795 33.5393 17.848 32.6463 17.36Z" fill="#FABC13"/>
<path d="M11.2282 9.13696C11.1642 9.37296 11.1302 9.61996 11.1302 9.87696V29.844C11.1302 30.101 11.1632 30.349 11.2282 30.584L22.2413 19.573L11.2282 9.13696Z" fill="#547DBF"/>
<path d="M21.9532 19.86L27.4642 14.351L15.4932 7.411C15.0582 7.15 14.5512 7 14.0072 7C12.6772 7 11.5552 7.905 11.2282 9.134V9.137L21.9532 19.86Z" fill="#30A851"/>
<path d="M48.0391 9.79097H45.1311V10.512H47.3101C47.2511 11.098 47.0161 11.559 46.6231 11.894C46.2291 12.229 45.7261 12.397 45.1311 12.397C44.4771 12.397 43.9241 12.171 43.4721 11.718C43.0281 11.257 42.8011 10.688 42.8011 9.99997C42.8011 9.31297 43.0281 8.74297 43.4721 8.28197C43.9241 7.82997 44.4771 7.60397 45.1311 7.60397C45.4661 7.60397 45.7851 7.66197 46.0781 7.78797C46.3711 7.91397 46.6061 8.08997 46.7901 8.31597L47.3431 7.76297C47.0921 7.47797 46.7731 7.25997 46.3801 7.10097C45.9861 6.94197 45.5751 6.86597 45.1311 6.86597C44.2591 6.86597 43.5221 7.16797 42.9191 7.77097C42.3151 8.37497 42.0141 9.11997 42.0141 9.99997C42.0141 10.88 42.3151 11.626 42.9191 12.229C43.5221 12.833 44.2591 13.134 45.1311 13.134C46.0441 13.134 46.7731 12.841 47.3351 12.246C47.8291 11.752 48.0811 11.081 48.0811 10.243C48.0811 10.101 48.0641 9.94997 48.0391 9.79097Z" fill="white"/>
<path d="M49.1871 6.99997V13H52.6901V12.263H49.9581V10.361H52.4211V9.63997H49.9581V7.73797H52.6901V6.99997H49.1871Z" fill="white"/>
<path d="M57.6161 7.73797V6.99997H53.4931V7.73797H55.1691V13H55.9401V7.73797H57.6161Z" fill="white"/>
<path d="M61.371 6.99997H60.6V13H61.371V6.99997Z" fill="white"/>
<path d="M66.466 7.73797V6.99997H62.343V7.73797H64.019V13H64.79V7.73797H66.466Z" fill="white"/>
<path d="M74.2681 7.77997C73.6731 7.16797 72.9441 6.86597 72.0721 6.86597C71.2011 6.86597 70.4711 7.16797 69.8761 7.77097C69.2811 8.36597 68.9881 9.11197 68.9881 9.99997C68.9881 10.889 69.2811 11.634 69.8761 12.229C70.4711 12.833 71.2011 13.134 72.0721 13.134C72.9351 13.134 73.6731 12.833 74.2681 12.229C74.8631 11.634 75.1561 10.889 75.1561 9.99997C75.1561 9.11997 74.8631 8.37497 74.2681 7.77997ZM70.4301 8.28197C70.8741 7.82997 71.4181 7.60397 72.0721 7.60397C72.7261 7.60397 73.2701 7.82997 73.7061 8.28197C74.1501 8.72697 74.3681 9.30497 74.3681 9.99997C74.3681 10.696 74.1501 11.274 73.7061 11.718C73.2701 12.171 72.7261 12.397 72.0721 12.397C71.4181 12.397 70.8741 12.171 70.4301 11.718C69.9941 11.266 69.7761 10.696 69.7761 9.99997C69.7761 9.30497 69.9941 8.73497 70.4301 8.28197Z" fill="white"/>
<path d="M77.0081 9.26297L76.9751 8.10597H77.0081L80.0591 13H80.8631V6.99997H80.0921V10.512L80.1261 11.668H80.0921L77.1761 6.99997H76.2381V13H77.0081V9.26297Z" fill="white"/>
</g>
<defs>
<clipPath id="clip0_108_8148">
<rect width="135" height="40" fill="white" transform="translate(0.664062)"/>
</clipPath>
</defs>
</svg>
